<svg width="24" height="32" viewBox="0 0 24 32" fill="none" xmlns="http://www.w3.org/2000/svg">
<path d="M23.6412 27.4844L14.6534 13.7205L21.7742 4.77616C22.1215 4.29854 22.2084 3.82093 22.2084 3.47357C22.2084 1.7802 19.9506 0 18.2138 0C17.5191 0 16.9112 0.260518 16.4336 0.955231L8.31423 12.4614V2.04072C8.31423 0.607874 6.62087 0 4.9275 0C3.23414 0 1.54077 0.607874 1.54077 2.04072V29.6553C1.54077 31.0448 3.23414 31.7395 4.9275 31.7395C6.62087 31.7395 8.31417 31.0448 8.31417 29.6553V21.7965L10.1378 19.4518L17.5625 30.7408C18.127 31.6526 18.9953 32 19.9071 32C21.861 32 23.9886 30.3066 23.9886 28.6133C23.9886 28.2225 23.8583 27.8318 23.6412 27.4844Z" fill="url(#paint0_linear_1292_275)"/>
<path d="M7.07636 20.8332C6.86196 21.1085 6.74559 21.4475 6.7457 21.7964V29.6577C6.65346 29.8095 6.00154 30.171 4.92797 30.171C3.85378 30.171 3.20185 29.8095 3.10962 29.6577V2.04045C3.10962 2.0348 3.10962 2.02978 3.11025 2.02664C3.19934 1.90178 3.78727 1.5686 4.92797 1.5686C6.06805 1.5686 6.65597 1.90178 6.74507 2.02664C6.7457 2.02978 6.7457 2.0348 6.7457 2.04045V12.4612C6.7457 13.1451 7.18805 13.7499 7.83997 13.9564C8.15749 14.057 8.49877 14.054 8.81448 13.9479C9.13019 13.8417 9.40396 13.6379 9.59621 13.3659C9.59621 13.3659 17.723 1.84907 17.7261 1.84405C17.8968 1.59558 18.011 1.5686 18.2142 1.5686C18.5951 1.5686 19.2502 1.79574 19.8531 2.30272C20.394 2.757 20.64 3.22821 20.64 3.47354C20.64 3.5959 20.5998 3.71637 20.5208 3.83245L7.07636 20.8332Z" fill="url(#paint1_linear_1292_275)"/>
<path d="M8.31433 14.0298C8.15621 14.0298 7.99621 14.0059 7.83997 13.9564C7.52236 13.8558 7.24506 13.6566 7.0483 13.3877C6.85154 13.1189 6.74554 12.7943 6.7457 12.4612V2.04045C6.7457 2.0348 6.7457 2.02978 6.74507 2.02664C6.65597 1.90178 6.06805 1.5686 4.92797 1.5686C3.78727 1.5686 3.19934 1.90178 3.11025 2.02664C3.10962 2.02978 3.10962 2.0348 3.10962 2.04045V29.6577C3.20185 29.8095 3.85378 30.171 4.92797 30.171C6.00154 30.171 6.65346 29.8095 6.7457 29.6577V21.7964C6.7457 21.4475 6.86178 21.1087 7.07636 20.8332L8.31433 19.2677V14.0298Z" fill="url(#paint2_linear_1292_275)"/>
<path d="M4.92797 1.5686C3.78727 1.5686 3.19934 1.90178 3.11025 2.02664C3.10962 2.02978 3.10962 2.0348 3.10962 2.04045V8.84704H6.7457V2.04045C6.7457 2.0348 6.7457 2.02978 6.74507 2.02664C6.65597 1.90178 6.06805 1.5686 4.92797 1.5686Z" fill="url(#paint3_linear_1292_275)"/>
<path d="M19.8531 2.30272C19.2501 1.79574 18.5951 1.5686 18.2142 1.5686C18.0109 1.5686 17.8967 1.59558 17.7261 1.84405C17.7241 1.84713 14.6628 6.18558 12.2979 9.53723H16.0094L20.5207 3.83245C20.5998 3.71637 20.6399 3.5959 20.6399 3.47354C20.6399 3.22821 20.394 2.757 19.8531 2.30272Z" fill="url(#paint4_linear_1292_275)"/>
<path d="M22.42 28.613C22.42 29.2649 21.1532 30.4313 19.907 30.4313C19.2978 30.4313 19.0543 30.1703 18.8962 29.9149C18.8887 29.903 18.8812 29.8911 18.873 29.8785C18.873 29.8785 11.2388 18.3222 11.1077 18.2199L13.6288 15.0205L22.3177 28.3262C22.4125 28.4818 22.42 28.5847 22.42 28.613Z" fill="url(#paint5_linear_1292_275)"/>
<path d="M13.6288 15.0205L11.1077 18.2199C11.1761 18.2733 13.2891 21.4479 15.2935 24.4705H19.7999L13.6288 15.0205Z" fill="url(#paint6_linear_1292_275)"/>
<path d="M14.6536 13.7205L10.1379 19.4518L13.6864 24.847H21.9192L14.6536 13.7205Z" fill="url(#paint7_linear_1292_275)"/>
<path d="M17.5626 30.7409C18.1272 31.6527 18.9955 32 19.9073 32C21.8612 32 23.9887 30.3067 23.9887 28.6133C23.9887 28.2225 23.8585 27.8317 23.6414 27.4844L20.0345 21.9608H11.7881L17.5626 30.7409Z" fill="url(#paint8_linear_1292_275)"/>
<path d="M4.92768 31.7395C6.62105 31.7395 8.31435 31.0448 8.31435 29.6554V21.9608H1.54102V29.6554C1.54102 31.0448 3.23432 31.7395 4.92768 31.7395Z" fill="url(#paint9_linear_1292_275)"/>
<path d="M18.9768 20.3413L14.6535 13.7205L18.9768 8.28998C18.9768 7.10748 18.0183 6.14893 16.8358 6.14893H12.7687L9.37988 10.9512V20.4264L10.1378 19.4519L12.2912 22.7261H18.9768V20.3413Z" fill="url(#paint10_linear_1292_275)"/>
<path d="M14.1573 13.9776C14.1573 11.6319 13.0339 9.54867 11.2961 8.23598L8.31441 12.4614V6.91312C7.86993 6.82876 7.4185 6.78633 6.96608 6.78638C4.80094 6.78638 2.85942 7.74337 1.54102 9.25728V18.698C2.85942 20.2119 4.80087 21.1689 6.96608 21.1689C7.68677 21.1689 8.38243 21.0624 9.03887 20.8651L10.138 19.4519L10.614 20.1756C12.7344 18.9249 14.1573 16.6176 14.1573 13.9776Z" fill="url(#paint11_linear_1292_275)"/>
<path d="M21.1262 6.89272C21.9969 6.65943 22.8804 6.82119 23.5863 7.26812C23.6638 7.31718 23.72 7.3936 23.7437 7.48219C23.7675 7.57079 23.757 7.66507 23.7144 7.7463C23.3265 8.48632 22.6423 9.06815 21.7716 9.30144C20.9009 9.53473 20.0174 9.37297 19.3115 8.92604C19.234 8.87698 19.1778 8.80056 19.154 8.71196C19.1303 8.62337 19.1408 8.52909 19.1834 8.44785C19.5713 7.70784 20.2555 7.126 21.1262 6.89272Z" fill="url(#paint12_linear_1292_275)"/>
<path d="M23.7144 7.74621C23.3265 8.48623 22.6423 9.06806 21.7716 9.30135C20.9009 9.53464 20.0174 9.37288 19.3115 8.92595C19.2339 8.87694 19.1777 8.80049 19.1541 8.71186L23.7437 7.48206C23.7675 7.57065 23.7571 7.66498 23.7144 7.74621Z" fill="url(#paint13_linear_1292_275)"/>
<path d="M2.51506 6.36045C2.74835 7.23116 2.58659 8.11461 2.13966 8.82056C2.0906 8.89805 2.01418 8.95426 1.92559 8.97799C1.83699 9.00173 1.74271 8.99127 1.66148 8.94868C0.921462 8.56079 0.339627 7.87656 0.106341 7.00584C-0.126945 6.13513 0.0348111 5.25168 0.481744 4.54574C0.530803 4.46824 0.607222 4.41204 0.695816 4.3883C0.78441 4.36456 0.878692 4.37502 0.959925 4.41761C1.69994 4.80556 2.28178 5.48974 2.51506 6.36045Z" fill="url(#paint14_linear_1292_275)"/>
<path d="M1.66148 8.94868C0.921462 8.56079 0.339627 7.87656 0.106341 7.00584C-0.126945 6.13513 0.0348111 5.25168 0.481744 4.54573C0.530753 4.46819 0.607201 4.41197 0.695831 4.38831L1.92563 8.97792C1.83704 9.00178 1.74271 8.99134 1.66148 8.94868Z" fill="url(#paint15_linear_1292_275)"/>
<path d="M10.3201 7.76656L11.1371 8.46052L10.5918 9.23291L9.7134 8.48687C9.30813 8.14591 8.85213 7.87028 8.36187 7.66993C8.34618 7.66365 8.32987 7.65738 8.31418 7.65111C7.50692 7.33047 6.63112 7.2214 5.76987 7.33424C4.35497 7.52122 3.07622 8.29989 2.26054 9.47071C1.92987 9.94507 1.69081 10.4564 1.54085 10.9841L1.53332 11.0099C1.27983 11.9134 1.29294 12.8621 1.54085 13.7493V15.892C0.0864183 13.8679 -0.00832702 11.0814 1.48821 8.93299C1.50264 8.91165 1.5177 8.89095 1.53338 8.87024C1.53589 8.86711 1.5384 8.86334 1.54091 8.8602C2.50781 7.51369 4.00052 6.61895 5.64695 6.40122C6.55111 6.28201 7.46342 6.37173 8.31425 6.65032C8.32993 6.65534 8.34625 6.66036 8.36193 6.66601C9.07778 6.9071 9.74202 7.28041 10.3201 7.76656Z" fill="url(#paint16_linear_1292_275)"/>
<path d="M19.5727 9.4419C19.2571 10.6284 18.4282 11.5846 17.2976 12.0653C16.7984 12.2781 16.2609 12.3864 15.7183 12.3834L16.5572 11.3299C16.6833 11.2948 16.8075 11.2508 16.9299 11.1988C17.7907 10.833 18.4226 10.1045 18.6629 9.19971C18.7194 8.98763 18.7526 8.77367 18.762 8.55971C18.7947 7.86763 18.587 7.18433 18.1609 6.61586L17.5824 5.95327L16.2528 4.42982L16.9619 3.81116L18.8304 5.95327L18.9013 6.03484C19.2395 6.48096 19.4748 6.98167 19.6003 7.50684C19.7503 8.13367 19.7446 8.79625 19.5727 9.4419Z" fill="url(#paint17_linear_1292_275)"/>
<path d="M19.5726 9.4419C19.2569 10.6284 18.4281 11.5846 17.2974 12.0653C16.7867 12.2824 16.2502 12.3865 15.7188 12.3828L16.5564 11.3299C16.6825 11.2948 16.8067 11.2508 16.9297 11.1988C17.7906 10.833 18.4224 10.1045 18.6627 9.19971C18.7192 8.98763 18.7525 8.77367 18.7619 8.55971C18.7945 7.86763 18.5868 7.18433 18.1608 6.61586L17.5823 5.95327L16.2527 4.42982L16.9617 3.81116L18.8303 5.95327L18.9012 6.03484C19.2394 6.48096 19.4747 6.98167 19.6002 7.50684C19.7501 8.13367 19.7445 8.79625 19.5726 9.4419Z" fill="url(#paint18_linear_1292_275)"/>
<path d="M15.3357 1.0554C17.3178 2.19975 18.6135 4.07626 19.0785 6.14604C19.1843 6.61713 18.911 7.09066 18.45 7.23454C16.425 7.8667 14.1521 7.68285 12.17 6.53857C10.1879 5.39422 8.89225 3.51771 8.42725 1.44793C8.3214 0.976843 8.59478 0.503306 9.0557 0.359432C11.0807 -0.272725 13.3537 -0.0888822 15.3357 1.0554Z" fill="url(#paint19_linear_1292_275)"/>
<path d="M15.3357 1.0554C17.3178 2.19975 18.6135 4.07626 19.0785 6.14604C19.1843 6.61713 18.911 7.09066 18.45 7.23454C16.425 7.8667 14.1521 7.68285 12.17 6.53857C10.1879 5.39422 8.89225 3.51771 8.42725 1.44793C8.3214 0.976843 8.59478 0.503306 9.0557 0.359432C11.0807 -0.272725 13.3537 -0.0888822 15.3357 1.0554Z" fill="url(#paint20_linear_1292_275)"/>
<path d="M12.1698 6.53871C12.5588 6.76334 12.9587 6.95095 13.3664 7.10235L13.7633 6.9128C15.6511 6.01184 17.5262 5.97558 18.9768 6.8131C17.5262 5.97558 16.62 4.3336 16.4564 2.2482L16.422 1.80968C16.0817 1.52821 15.7183 1.27586 15.3356 1.05529C13.3536 -0.0890504 11.0807 -0.272831 9.05559 0.359326C8.59453 0.503263 8.32116 0.976738 8.42701 1.44802C8.89214 3.51791 10.1877 5.39437 12.1698 6.53871Z" fill="url(#paint21_linear_1292_275)"/>
<path d="M16.3382 5.28959C14.8876 4.45207 13.0126 4.48833 11.1247 5.38929L10.8044 5.5422C9.58768 4.43588 8.77513 2.99606 8.42727 1.44796C8.32136 0.976677 8.59474 0.503202 9.05585 0.359265C10.5705 -0.113582 12.2237 -0.129771 13.7902 0.37081L13.8179 0.72463C13.9815 2.81009 14.8876 4.45213 16.3382 5.28959Z" fill="url(#paint22_linear_1292_275)"/>
<path d="M13.272 3.51942C12.0778 2.82991 10.5958 2.73322 9.05592 3.22307C8.77634 2.65852 8.56521 2.06259 8.42703 1.44795C8.32112 0.976671 8.5945 0.503197 9.05561 0.359259C9.65699 0.171597 10.2786 0.0564805 10.9073 0.0163574C11.2531 1.5949 12.0778 2.82997 13.272 3.51942Z" fill="url(#paint23_linear_1292_275)"/>
<path d="M18.45 7.23453C16.425 7.86668 14.152 7.68284 12.17 6.53856C10.1879 5.39421 8.8923 3.5177 8.42723 1.44792C8.37596 1.22074 8.41229 0.982578 8.52894 0.781006L18.9768 6.81307C18.8605 7.01486 18.6724 7.16537 18.45 7.23453Z" fill="url(#paint24_linear_1292_275)"/>
<path d="M23.6414 27.4845L19.4481 21.0629L19.4432 21.0627L13.4609 24.5044L17.5626 30.7409C18.1272 31.6527 18.9955 32 19.9073 32C21.8612 32 23.9888 30.3067 23.9888 28.6133C23.9888 28.2225 23.8585 27.8318 23.6414 27.4845Z" fill="url(#paint25_linear_1292_275)"/>
<path d="M19.5516 22.0239C18.8814 25.0075 17.0135 27.7125 14.1566 29.3621C12.1437 30.5241 9.92252 30.9992 7.76465 30.8586C8.10661 30.5424 8.3143 30.1414 8.3143 29.6552V22.3157C8.71524 22.0051 9.1419 21.7183 9.59304 21.458C12.4499 19.8084 15.7265 19.5435 18.6455 20.4547C19.4059 20.6923 19.7108 21.3144 19.5516 22.0239Z" fill="url(#paint26_linear_1292_275)"/>
<path d="M19.5515 22.0239C18.8814 25.0075 17.0134 27.7125 14.1565 29.3621C13.5956 29.6859 13.0196 29.9563 12.4316 30.1747L11.8594 29.9011C10.6572 29.3276 9.45805 28.9969 8.31421 28.911V22.3163C8.7204 22.0014 9.14765 21.7146 9.59295 21.458C12.4498 19.8084 15.7264 19.5429 18.6454 20.4547C19.4065 20.6916 19.7113 21.3145 19.5515 22.0239Z" fill="url(#paint27_linear_1292_275)"/>
<path d="M19.5516 22.0239C18.8814 25.0075 17.0135 27.7125 14.1566 29.3621C12.1437 30.5241 9.92252 30.9992 7.76465 30.8586C8.10661 30.5424 8.3143 30.1414 8.3143 29.6552V22.3157C8.71524 22.0051 9.1419 21.7183 9.59304 21.458C12.4499 19.8084 15.7265 19.5435 18.6455 20.4547C19.4059 20.6923 19.7108 21.3144 19.5516 22.0239Z" fill="url(#paint28_linear_1292_275)"/>
<path d="M19.5521 22.0242C19.0501 24.2554 17.8793 26.331 16.125 27.926L15.6638 27.7051C13.0134 26.4402 10.3813 26.358 8.31445 27.4692V27.4617C10.3085 26.2268 11.5515 23.9072 11.7811 20.9814L11.8213 20.4712C14.0795 19.7497 16.4625 19.7729 18.6461 20.4543C19.4065 20.6921 19.7115 21.3145 19.5521 22.0242Z" fill="url(#paint29_linear_1292_275)"/>
<path d="M12.5679 25.0099C14.2893 24.016 16.4256 23.8766 18.6453 24.5828C19.0483 23.769 19.3526 22.9099 19.5518 22.024C19.7112 21.3147 19.4064 20.6921 18.6458 20.4546C17.7789 20.1841 16.8828 20.0182 15.9766 19.9603C15.4782 22.2357 14.2893 24.016 12.5679 25.0099Z" fill="url(#paint30_linear_1292_275)"/>
<path d="M19.5516 22.024C18.8814 25.0076 17.0135 27.7126 14.1566 29.3622C12.1437 30.5242 9.92252 30.9992 7.76465 30.8587C8.10661 30.5425 8.3143 30.1415 8.3143 29.6552V27.4654L19.4432 21.0627C19.6058 21.3438 19.6281 21.6845 19.5516 22.024Z" fill="url(#paint31_linear_1292_275)"/>
<path d="M8.36192 6.66603C8.34623 6.66039 8.32992 6.65537 8.31423 6.65035C7.80652 6.48428 7.27907 6.38615 6.74561 6.35852V7.30064C7.2837 7.33398 7.81312 7.45227 8.31423 7.65113C8.32992 7.65741 8.34623 7.66368 8.36192 7.66996C8.85218 7.87031 9.30818 8.14594 9.71345 8.4869L10.5919 9.23294L11.1371 8.46054L10.3202 7.76658C9.74206 7.28042 9.07779 6.90711 8.36192 6.66603Z" fill="url(#paint32_linear_1292_275)"/>
<path d="M1.37804 9.09802C-0.00228651 11.2226 0.123329 13.9193 1.54087 15.8921V13.7493C1.29302 12.8621 1.27991 11.9134 1.53334 11.0099L1.54087 10.9841C1.69083 10.4565 1.92989 9.94508 2.26055 9.47073C2.35068 9.34209 2.44674 9.21772 2.54843 9.09802H1.37804Z" fill="url(#paint33_linear_1292_275)"/>
<defs>
<linearGradient id="paint0_linear_1292_275" x1="-3.60163" y1="7.61656" x2="22.75" y2="22.2041" gradientUnits="userSpaceOnUse">
<stop stop-color="#5A5A5A"/>
<stop offset="1" stop-color="#444444"/>
</linearGradient>
<linearGradient id="paint1_linear_1292_275" x1="-1.96966" y1="5.72158" x2="20.5558" y2="22.9137" gradientUnits="userSpaceOnUse">
<stop stop-color="#433F43" stop-opacity="0"/>
<stop offset="1" stop-color="#1A1A1A"/>
</linearGradient>
<linearGradient id="paint2_linear_1292_275" x1="5.73738" y1="15.8698" x2="2.84841" y2="15.8698" gradientUnits="userSpaceOnUse">
<stop stop-color="#433F43" stop-opacity="0"/>
<stop offset="1" stop-color="#1A1A1A"/>
</linearGradient>
<linearGradient id="paint3_linear_1292_275" x1="4.92766" y1="4.45488" x2="4.92766" y2="1.25425" gradientUnits="userSpaceOnUse">
<stop stop-color="#433F43" stop-opacity="0"/>
<stop offset="1" stop-color="#1A1A1A"/>
</linearGradient>
<linearGradient id="paint4_linear_1292_275" x1="16.6532" y1="6.15" x2="18.5983" y2="1.75784" gradientUnits="userSpaceOnUse">
<stop stop-color="#433F43" stop-opacity="0"/>
<stop offset="1" stop-color="#1A1A1A"/>
</linearGradient>
<linearGradient id="paint5_linear_1292_275" x1="6.60175" y1="13.872" x2="24.8606" y2="30.1857" gradientUnits="userSpaceOnUse">
<stop stop-color="#433F43" stop-opacity="0"/>
<stop offset="1" stop-color="#1A1A1A"/>
</linearGradient>
<linearGradient id="paint6_linear_1292_275" x1="14.4295" y1="19.7199" x2="11.7942" y2="17.5865" gradientUnits="userSpaceOnUse">
<stop stop-color="#433F43" stop-opacity="0"/>
<stop offset="1" stop-color="#1A1A1A"/>
</linearGradient>
<linearGradient id="paint7_linear_1292_275" x1="14.2089" y1="19.3291" x2="11.8873" y2="16.631" gradientUnits="userSpaceOnUse">
<stop stop-color="#433F43" stop-opacity="0"/>
<stop offset="1" stop-color="#1A1A1A"/>
</linearGradient>
<linearGradient id="paint8_linear_1292_275" x1="17.8884" y1="27.8589" x2="17.8884" y2="31.2616" gradientUnits="userSpaceOnUse">
<stop stop-color="#433F43" stop-opacity="0"/>
<stop offset="1" stop-color="#1A1A1A"/>
</linearGradient>
<linearGradient id="paint9_linear_1292_275" x1="4.92768" y1="27.8589" x2="4.92768" y2="31.2616" gradientUnits="userSpaceOnUse">
<stop stop-color="#433F43" stop-opacity="0"/>
<stop offset="1" stop-color="#1A1A1A"/>
</linearGradient>
<linearGradient id="paint10_linear_1292_275" x1="16.266" y1="10.8076" x2="17.3954" y2="7.54488" gradientUnits="userSpaceOnUse">
<stop stop-color="#433F43" stop-opacity="0"/>
<stop offset="1"/>
</linearGradient>
<linearGradient id="paint11_linear_1292_275" x1="5.25101" y1="11.2873" x2="3.28502" y2="8.27557" gradientUnits="userSpaceOnUse">
<stop stop-color="#433F43" stop-opacity="0"/>
<stop offset="1"/>
</linearGradient>
<linearGradient id="paint12_linear_1292_275" x1="21.131" y1="6.90868" x2="21.7764" y2="9.31739" gradientUnits="userSpaceOnUse">
<stop stop-color="#81B823"/>
<stop offset="1" stop-color="#017B4E"/>
</linearGradient>
<linearGradient id="paint13_linear_1292_275" x1="21.5449" y1="8.68967" x2="21.3957" y2="7.73564" gradientUnits="userSpaceOnUse">
<stop stop-color="#017B4E" stop-opacity="0"/>
<stop offset="1" stop-color="#026841"/>
</linearGradient>
<linearGradient id="paint14_linear_1292_275" x1="2.47117" y1="6.39481" x2="0.06246" y2="7.04022" gradientUnits="userSpaceOnUse">
<stop stop-color="#BBEC6C"/>
<stop offset="1" stop-color="#81B823"/>
</linearGradient>
<linearGradient id="paint15_linear_1292_275" x1="0.690092" y1="6.80871" x2="1.64413" y2="6.65961" gradientUnits="userSpaceOnUse">
<stop stop-color="#78A91F" stop-opacity="0"/>
<stop offset="0.163" stop-color="#73A620" stop-opacity="0.163"/>
<stop offset="0.354" stop-color="#659E24" stop-opacity="0.354"/>
<stop offset="0.559" stop-color="#4E912B" stop-opacity="0.559"/>
<stop offset="0.774" stop-color="#2D8034" stop-opacity="0.774"/>
<stop offset="0.994" stop-color="#036941" stop-opacity="0.994"/>
<stop offset="1" stop-color="#026841"/>
</linearGradient>
<linearGradient id="paint16_linear_1292_275" x1="2.66411" y1="7.24496" x2="7.30054" y2="13.4666" gradientUnits="userSpaceOnUse">
<stop stop-color="#BBEC6C"/>
<stop offset="1" stop-color="#81B823"/>
</linearGradient>
<linearGradient id="paint17_linear_1292_275" x1="14.3624" y1="5.25386" x2="19.7298" y2="12.4564" gradientUnits="userSpaceOnUse">
<stop stop-color="#BBEC6C"/>
<stop offset="1" stop-color="#81B823"/>
</linearGradient>
<linearGradient id="paint18_linear_1292_275" x1="20.3392" y1="9.69652" x2="17.5156" y2="8.56711" gradientUnits="userSpaceOnUse">
<stop stop-color="#78A91F" stop-opacity="0"/>
<stop offset="0.163" stop-color="#73A620" stop-opacity="0.163"/>
<stop offset="0.354" stop-color="#659E24" stop-opacity="0.354"/>
<stop offset="0.559" stop-color="#4E912B" stop-opacity="0.559"/>
<stop offset="0.774" stop-color="#2D8034" stop-opacity="0.774"/>
<stop offset="0.994" stop-color="#036941" stop-opacity="0.994"/>
<stop offset="1" stop-color="#026841"/>
</linearGradient>
<linearGradient id="paint19_linear_1292_275" x1="15.3398" y1="1.05272" x2="12.1741" y2="6.53583" gradientUnits="userSpaceOnUse">
<stop stop-color="#BBEC6C"/>
<stop offset="1" stop-color="#81B823"/>
</linearGradient>
<linearGradient id="paint20_linear_1292_275" x1="15.3398" y1="1.05272" x2="12.1741" y2="6.53583" gradientUnits="userSpaceOnUse">
<stop stop-color="#BBEC6C"/>
<stop offset="1" stop-color="#81B823"/>
</linearGradient>
<linearGradient id="paint21_linear_1292_275" x1="12.8144" y1="3.2502" x2="19.8111" y2="7.28973" gradientUnits="userSpaceOnUse">
<stop stop-color="#78A91F" stop-opacity="0"/>
<stop offset="0.163" stop-color="#73A620" stop-opacity="0.163"/>
<stop offset="0.354" stop-color="#659E24" stop-opacity="0.354"/>
<stop offset="0.559" stop-color="#4E912B" stop-opacity="0.559"/>
<stop offset="0.774" stop-color="#2D8034" stop-opacity="0.774"/>
<stop offset="0.994" stop-color="#036941" stop-opacity="0.994"/>
<stop offset="1" stop-color="#026841"/>
</linearGradient>
<linearGradient id="paint22_linear_1292_275" x1="10.7538" y1="2.0604" x2="17.9667" y2="6.22473" gradientUnits="userSpaceOnUse">
<stop stop-color="#78A91F" stop-opacity="0"/>
<stop offset="0.163" stop-color="#73A620" stop-opacity="0.163"/>
<stop offset="0.354" stop-color="#659E24" stop-opacity="0.354"/>
<stop offset="0.559" stop-color="#4E912B" stop-opacity="0.559"/>
<stop offset="0.774" stop-color="#2D8034" stop-opacity="0.774"/>
<stop offset="0.994" stop-color="#036941" stop-opacity="0.994"/>
<stop offset="1" stop-color="#026841"/>
</linearGradient>
<linearGradient id="paint23_linear_1292_275" x1="8.91912" y1="1.00122" x2="14.3684" y2="4.14739" gradientUnits="userSpaceOnUse">
<stop stop-color="#78A91F" stop-opacity="0"/>
<stop offset="0.163" stop-color="#73A620" stop-opacity="0.163"/>
<stop offset="0.354" stop-color="#659E24" stop-opacity="0.354"/>
<stop offset="0.559" stop-color="#4E912B" stop-opacity="0.559"/>
<stop offset="0.774" stop-color="#2D8034" stop-opacity="0.774"/>
<stop offset="0.994" stop-color="#036941" stop-opacity="0.994"/>
<stop offset="1" stop-color="#026841"/>
</linearGradient>
<linearGradient id="paint24_linear_1292_275" x1="12.8854" y1="4.99334" x2="14.3303" y2="3.0129" gradientUnits="userSpaceOnUse">
<stop stop-color="#78A91F" stop-opacity="0"/>
<stop offset="0.163" stop-color="#73A620" stop-opacity="0.163"/>
<stop offset="0.354" stop-color="#659E24" stop-opacity="0.354"/>
<stop offset="0.559" stop-color="#4E912B" stop-opacity="0.559"/>
<stop offset="0.774" stop-color="#2D8034" stop-opacity="0.774"/>
<stop offset="0.994" stop-color="#036941" stop-opacity="0.994"/>
<stop offset="1" stop-color="#026841"/>
</linearGradient>
<linearGradient id="paint25_linear_1292_275" x1="20.0211" y1="27.0121" x2="17.6995" y2="25.569" gradientUnits="userSpaceOnUse">
<stop stop-color="#433F43" stop-opacity="0"/>
<stop offset="1"/>
</linearGradient>
<linearGradient id="paint26_linear_1292_275" x1="7.76465" y1="25.4097" x2="19.5926" y2="25.4097" gradientUnits="userSpaceOnUse">
<stop stop-color="#81B823"/>
<stop offset="1" stop-color="#017B4E"/>
</linearGradient>
<linearGradient id="paint27_linear_1292_275" x1="10.4596" y1="25.906" x2="7.35716" y2="26.9961" gradientUnits="userSpaceOnUse">
<stop stop-color="#017B4E" stop-opacity="0"/>
<stop offset="1" stop-color="#026841"/>
</linearGradient>
<linearGradient id="paint28_linear_1292_275" x1="10.4766" y1="25.4097" x2="7.65102" y2="25.4097" gradientUnits="userSpaceOnUse">
<stop stop-color="#01525A" stop-opacity="0"/>
<stop offset="1" stop-color="#01525A"/>
</linearGradient>
<linearGradient id="paint29_linear_1292_275" x1="12.8278" y1="24.7316" x2="7.89996" y2="27.0251" gradientUnits="userSpaceOnUse">
<stop stop-color="#017B4E" stop-opacity="0"/>
<stop offset="1" stop-color="#026841"/>
</linearGradient>
<linearGradient id="paint30_linear_1292_275" x1="18.8728" y1="21.3658" x2="10.9843" y2="25.9203" gradientUnits="userSpaceOnUse">
<stop stop-color="#017B4E" stop-opacity="0"/>
<stop offset="1" stop-color="#026841"/>
</linearGradient>
<linearGradient id="paint31_linear_1292_275" x1="13.8298" y1="26.2233" x2="12.4808" y2="24.6546" gradientUnits="userSpaceOnUse">
<stop stop-color="#017B4E" stop-opacity="0"/>
<stop offset="1" stop-color="#026841"/>
</linearGradient>
<linearGradient id="paint32_linear_1292_275" x1="9.34275" y1="8.1519" x2="10.7859" y2="9.26036" gradientUnits="userSpaceOnUse">
<stop stop-color="#78A91F" stop-opacity="0"/>
<stop offset="0.163" stop-color="#73A620" stop-opacity="0.163"/>
<stop offset="0.354" stop-color="#659E24" stop-opacity="0.354"/>
<stop offset="0.559" stop-color="#4E912B" stop-opacity="0.559"/>
<stop offset="0.774" stop-color="#2D8034" stop-opacity="0.774"/>
<stop offset="0.994" stop-color="#036941" stop-opacity="0.994"/>
<stop offset="1" stop-color="#026841"/>
</linearGradient>
<linearGradient id="paint33_linear_1292_275" x1="1.5676" y1="11.6295" x2="3.03244" y2="14.5383" gradientUnits="userSpaceOnUse">
<stop stop-color="#78A91F" stop-opacity="0"/>
<stop offset="0.163" stop-color="#73A620" stop-opacity="0.163"/>
<stop offset="0.354" stop-color="#659E24" stop-opacity="0.354"/>
<stop offset="0.559" stop-color="#4E912B" stop-opacity="0.559"/>
<stop offset="0.774" stop-color="#2D8034" stop-opacity="0.774"/>
<stop offset="0.994" stop-color="#036941" stop-opacity="0.994"/>
<stop offset="1" stop-color="#026841"/>
</linearGradient>
</defs>
</svg>
